# xmcd
#
# Track frame offsets:
#	150
#	10983
#	25693
#	37618
#	52509
#	68243
#	78648
#	94268
#	108215
#	118534
#
# Disc length: 1707 seconds
#
# Revision: 0
# Processed by: cddbd v1.5.1PL2 Copyright (c) Steve Scherf et al.
# Submitted via: dBpowerAMP V4.0
#
DISCID=6906a90a
DTITLE=Mike Hammock - Branded
DYEAR=1997
DGENRE=Christian
TTITLE0=A New Song
TTITLE1=Leave Him Your Worries
TTITLE2=Till The Lord Comes Back
TTITLE3=Branded
TTITLE4=I am Free
TTITLE5=Heaven is My Home
TTITLE6=The Seed
TTITLE7=Thank You Father
TTITLE8=I'm Proud of My Family
TTITLE9=Can't Turn Back
EXTD=Encore Recording
EXTT0=
EXTT1=
EXTT2=
EXTT3=
EXTT4=
EXTT5=
EXTT6=
EXTT7=
EXTT8=
EXTT9=
PLAYORDER=
